<?xml version="1.0" encoding="UTF-8"?>
<svg version="1.1" viewBox="0 0 48 48" xmlns="http://www.w3.org/2000/svg">
 <circle cx="24" cy="24" r="24" fill="#333" style="paint-order:stroke fill markers"/>
 <path d="m21.096 2.2207c-4.82-3.068e-4 -8.7277 3.9066-8.7285 8.7266 0.0021 0.26679 0.01644 0.53335 0.04297 0.79883-0.68272-0.20676-1.3921-0.31206-2.1055-0.3125-4.0202 1.08e-4 -7.2792 3.2591-7.2793 7.2793 0.00505 3.8981 3.0799 7.1004 6.9746 7.2637 9.9261 0.03532 19.849 0.02172 28.393 0.04883 3.6879-1.62e-4 6.6776-2.9898 6.6777-6.6777-1.62e-4 -3.6879-2.9898-6.6776-6.6777-6.6777-0.45093 0.0021-0.90049 0.04987-1.3418 0.14258 0.17286-0.54517 0.26112-1.1136 0.26172-1.6855-2.42e-4 -3.0903-2.5054-5.5955-5.5957-5.5957-1.1148 0.0017145-2.2036 0.33633-3.127 0.96094-1.5707-2.645-4.4179-4.2678-7.4941-4.2715z" fill="#5df" style="paint-order:stroke fill markers"/>
 <path d="m38.061 12.66c-0.3091 3.87e-4 -0.61008 0.015089-0.89844 0.041016 4.9492 0.1875 4.8379 6.2988-0.16211 6.2988h-20c-5 0-7 2-7 7l20.949 20.949a24 24 0 0 0 17.051-22.949 24 24 0 0 0-0.54688-4.9551l-3.3418-3.1562c-1.3307-2.5283-3.8871-3.2312-6.0508-3.2285z" opacity=".25"/>
 <g stroke-width=".7746">
  <path d="m21 33h6v8l-3 5-3-5z" fill="#ffd42a"/>
  <rect x="21" y="29" width="6" height="3" fill="#f0f" style="paint-order:stroke fill markers"/>
  <path d="m22.8 44 1.2 2 1.2-2z" opacity=".5"/>
  <path d="m24 29v17l3-5v-12z" opacity=".25"/>
 </g>
</svg>
